<?xml version="1.0" encoding="UTF-8" standalone="no"?>
<!-- Created with Inkscape (http://www.inkscape.org/) -->

<svg
   width="112.67728mm"
   height="77.272797mm"
   viewBox="0 0 112.67728 77.272797"
   version="1.1"
   id="svg1"
   xml:space="preserve"
   inkscape:version="1.3 (0e150ed6c4, 2023-07-21)"
   sodipodi:docname="drawing.svg"
   xmlns:inkscape="http://www.inkscape.org/namespaces/inkscape"
   xmlns:sodipodi="http://sodipodi.sourceforge.net/DTD/sodipodi-0.dtd"
   xmlns="http://www.w3.org/2000/svg"
   xmlns:svg="http://www.w3.org/2000/svg"><sodipodi:namedview
     id="namedview1"
     pagecolor="#ffffff"
     bordercolor="#000000"
     borderopacity="0.25"
     inkscape:showpageshadow="2"
     inkscape:pageopacity="0.0"
     inkscape:pagecheckerboard="0"
     inkscape:deskcolor="#d1d1d1"
     inkscape:document-units="mm"
     inkscape:zoom="2.0938812"
     inkscape:cx="221.12047"
     inkscape:cy="643.54176"
     inkscape:window-width="1920"
     inkscape:window-height="1027"
     inkscape:window-x="-8"
     inkscape:window-y="-8"
     inkscape:window-maximized="1"
     inkscape:current-layer="layer1" /><defs
     id="defs1"><rect
       x="66.189491"
       y="730.1106"
       width="428.20547"
       height="89.82859"
       id="rect1" /></defs><g
     inkscape:label="Layer 1"
     inkscape:groupmode="layer"
     id="layer1"
     transform="translate(-11.545549,-129.22724)"><path
       id="path1"
       style="fill:#c7ffed;fill-opacity:1;stroke:none"
       inkscape:label="path1"
       d="m 65.043575,143.24862 c 0.07107,-0.002 0.18425,0.0817 0.33383,0.25942 0.462539,0.54969 1.030424,0.79074 3.026172,1.28416 1.999488,0.49435 2.685138,0.77205 3.481958,1.41231 0.494169,0.39707 0.968933,1.03303 0.968933,1.2976 0,0.16678 -0.237761,0.0359 -0.86558,-0.47543 -0.84334,-0.68686 -2.465952,-1.35942 -3.77393,-1.56476 -2.153978,-0.33815 -2.872809,-0.68688 -3.146578,-1.52549 -0.14425,-0.44188 -0.143264,-0.68408 -0.02481,-0.68781 z" /><path
       id="path54"
       style="fill:#c7ffed;fill-opacity:1;stroke:none"
       inkscape:label="path1"
       d="m 50.0054,187.56401 c -0.318204,0.14117 -0.649174,0.28301 -1.010275,0.42736 -0.409348,0.16364 -0.846697,0.32957 -1.312581,0.49817 -0.539022,0.19506 -1.042829,0.38764 -1.503784,0.57412 -0.460955,0.18648 -0.87906,0.36675 -1.246436,0.53744 -0.327699,0.15225 -0.598693,0.29362 -0.840259,0.42788 0.309305,0.62085 0.520487,0.8163 0.954281,1.51902 0.76625,1.24128 4.942169,4.06463 4.704622,2.69337 l -0.194303,-1.12034 -0.193787,-1.48311 c -0.191166,-1.46501 0.247594,-2.49022 0.642522,-4.07391 z"
       sodipodi:nodetypes="csssscscccc" /><path
       id="path53"
       style="fill:#c7ffed;fill-opacity:1;stroke:none"
       inkscape:label="path1"
       d="m 53.187451,174.23171 c -0.160959,0.15577 -0.651906,0.5851 -0.804102,0.73307 -0.782615,0.76089 -1.495589,1.24141 -2.066774,1.81859 -0.571185,0.57719 -1.156664,1.04987 -1.55036,1.48093 -0.393696,0.43106 -0.528715,0.53028 -0.778863,0.85281 -0.125074,0.16127 -0.234145,0.31151 -0.329696,0.45269 -0.09555,0.14118 -0.17726,0.27315 -0.24753,0.39894 -0.07027,0.12579 -0.129052,0.24508 -0.178283,0.36019 -0.04923,0.1151 -0.089,0.22626 -0.12144,0.33538 -0.03244,0.10911 -0.05763,0.21619 -0.07752,0.32401 -0.01988,0.10782 -0.03442,0.2164 -0.04599,0.32763 l 0.131508,0.85034 0.452886,0.43418 c 0.141641,0.10711 0.29428,0.20267 0.455786,0.28681 0.161506,0.0841 0.331966,0.15709 0.510563,0.21807 0.178597,0.061 0.365191,0.11016 0.558106,0.1478 0.192915,0.0376 0.392402,0.0634 0.596862,0.0775 0.204461,0.0141 0.413603,0.0164 0.626836,0.007 0.213232,-0.01 0.430341,-0.031 0.649572,-0.0646 0.08487,-0.013 0.171348,-0.0366 0.256832,-0.0532 1.291449,-3.484 3.124244,-4.51261 4.615706,-2.5572 0.197103,0.25841 0.611521,1.09294 0.921391,1.85466 0.309881,0.76173 0.712736,1.6106 0.895035,1.88619 1.961118,2.96476 4.814876,4.36412 9.502263,6.97322 2.796618,1.67387 3.092205,4.93332 2.871659,2.90112 -1.268519,-2.96384 -0.362844,-1.03395 -1.396814,-3.04116 -1.01783,-1.97588 -3.725492,-4.05952 -4.327901,-5.99963 -0.35595,-1.14639 -0.585796,-2.74765 -0.470256,-3.27371 l 0.08888,-0.40514 2.119767,0.0946 c 6.316624,0.28171 11.286,1.75696 15.918925,3.29799 1.856738,0.61761 4.683267,2.00917 6.464205,2.85512 3.527038,1.67535 3.382522,1.01529 5.655985,4.81728 0.34637,1.91387 0.06146,4.58368 -0.285253,7.13961 l 5.219319,5.60276 c -2.616343,-4.37453 -3.546208,-6.67575 -2.496488,-9.42578 0.189441,-1.53736 0.376908,-1.51733 0.185518,-2.89336 -0.819309,-5.89063 -4.034165,-9.14471 -10.416418,-12.12588 -6.601144,-3.0834 -14.91958,-4.93267 -28.764136,-6.39496 -1.842945,-0.19465 -2.794939,-0.0981 -4.339787,-0.29355 z"
       sodipodi:nodetypes="cssssssssscccsssssscsssccssccsssccccssscc" /><path
       id="path52"
       style="fill:#c7ffed;fill-opacity:1;stroke:none"
       inkscape:label="path1"
       d="m 59.596632,167.736 -1.012858,0.9617 c -1.124501,1.06752 -1.751453,1.67671 -2.667537,2.55074 6.339033,0.98924 12.137301,2.08468 16.295893,3.14247 6.549303,1.66589 10.58676,3.0775 15.005285,5.2467 6.154744,3.02159 10.059882,6.93383 11.062891,11.08253 l 0.259416,1.07229 0.04082,-1.21492 c 0.09874,-2.9301 -1.293719,-6.57324 -3.616317,-9.4604 -1.215588,-1.51106 -3.347538,-3.47175 -4.884456,-4.49275 -1.327679,-0.88199 -3.802011,-2.17041 -4.168221,-2.17041 -0.10489,0 -0.443202,-0.1288 -0.751892,-0.28629 -1.592919,-0.81265 -7.225121,-2.48908 -12.374955,-3.68298 -1.871769,-0.43394 -7.180098,-1.5418 -11.853024,-2.47426 -0.706953,-0.14107 -0.693573,-0.14212 -1.335049,-0.27442 z"
       sodipodi:nodetypes="cccsscccssssssc" /><path
       id="path50"
       style="fill:#c7ffed;fill-opacity:1;stroke:none"
       inkscape:label="path1"
       d="m 50.371063,170.12146 c 0.350985,-0.3003 0.622678,-0.52463 1.008724,-0.85783 0.936418,-0.80821 2.052263,-1.77998 3.216858,-2.79414 -4.693257,-1.06904 -6.341919,-1.5303 -7.269818,-2.36685 -0.30307,-0.27322 -0.730423,-0.87444 -0.949296,-1.33635 -1.499214,-3.16395 1.232174,-6.02886 7.478096,-7.84396 0.917338,-0.26658 1.747766,-0.48473 1.845366,-0.48473 0.123313,0 0.199394,-0.35691 0.250114,-1.16995 0.08184,-1.31189 0.530865,-2.50708 1.340486,-3.56774 0.25562,-0.33489 0.435559,-0.63828 0.399459,-0.67438 -0.10298,-0.10297 -1.305145,0.54728 -2.68304,1.45107 -0.69287,0.45447 -1.348649,0.8802 -1.457276,0.9462 -0.166713,0.10124 -0.18368,-0.0759 -0.10852,-1.13482 0.04898,-0.68998 0.182132,-1.5187 0.296106,-1.84174 0.113955,-0.32304 0.16284,-0.58707 0.10852,-0.58653 -0.628047,0.006 -4.453719,1.14018 -6.454903,1.91306 -5.570226,2.1513 -9.650344,5.69841 -11.039636,9.59735 -0.486871,1.36638 -0.510349,3.30278 -0.05374,4.41678 0.75474,1.84137 2.2447,3.31429 4.429703,4.37803 1.84643,0.89891 3.020678,0.96852 9.6428,1.95653 z"
       sodipodi:nodetypes="cscsssssssscsssssssc" /><path
       id="path49"
       style="fill:#c7ffed;fill-opacity:1;stroke:none"
       inkscape:label="path1"
       d="m 41.44241,171.59287 c -0.03231,0.0827 -0.06602,0.16454 -0.0925,0.25115 -0.04001,0.13085 -0.07257,0.26379 -0.09405,0.39171 l -0.156063,0.93017 1.0604,0.98806 c 0.148383,0.13827 0.287802,0.26784 0.42168,0.38654 0.133879,0.11869 0.261792,0.22684 0.38809,0.32194 0.130222,0.0981 0.108208,0.0844 0.326381,0.18115 0.137987,0.0611 0.335841,0.0206 0.499345,-0.0165 0.163504,-0.0372 0.478514,-0.11795 0.668372,-0.19795 0.189858,-0.08 0.395028,-0.18241 0.61805,-0.30903 0.223023,-0.12661 0.464091,-0.27762 0.727088,-0.45475 0.262996,-0.17712 0.547531,-0.38035 0.857312,-0.61185 0.243213,-0.18175 0.515885,-0.39548 0.791683,-0.61288 -2.7247,-0.4549 -4.263557,-0.67612 -6.015787,-1.24768 z"
       sodipodi:nodetypes="cscccssssssssccc" /><path
       id="path47"
       style="fill:#c7ffed;fill-opacity:1;stroke:none"
       inkscape:label="path1"
       d="m 45.585331,135.86871 c -0.546445,-0.0285 -1.091215,-0.0265 -1.666048,0.001 -4.543092,0.21789 -8.908702,1.04838 -13.430188,2.55437 -2.721791,0.90656 -7.174095,2.77413 -7.008358,2.93987 0.03484,0.0349 0.684909,-0.0101 1.444873,-0.0997 2.229449,-0.26294 6.143711,-0.009 9.027873,0.58497 2.495967,0.51424 5.426712,1.64898 6.053377,2.34353 0.390538,0.43284 0.249515,0.89486 -0.364318,1.19476 -0.568878,0.27793 -1.768434,0.41571 -5.631181,0.64802 -5.277959,0.31743 -9.283458,1.31448 -13.08654,3.25717 -2.928177,1.49576 -5.145378,3.24782 -6.960299,5.50044 -0.874464,1.08535 -2.418973,3.57545 -2.418973,3.90002 0,0.0604 0.456779,-0.31357 1.014925,-0.83096 1.820964,-1.68798 3.287912,-2.68843 5.283915,-3.6034 0.991464,-0.45449 3.326323,-1.28067 4.069519,-1.44022 2.201647,-0.47263 3.486847,-0.66393 4.539258,-0.67593 4.014328,-0.0459 4.003382,1.9648 -0.03359,6.23166 -2.353799,2.48784 -3.33687,3.83733 -4.307747,5.91437 -1.283525,2.74589 -1.667116,4.46998 -1.671216,7.50549 -0.0018,1.32124 0.07569,2.58013 0.198437,3.21944 l 0.201538,1.05006 0.106971,-1.20251 c 0.313204,-3.52482 2.666209,-7.37869 5.251875,-8.60206 2.422037,-1.14594 3.440905,0.64484 2.432927,4.27571 -0.215637,0.77676 -0.314902,1.6689 -0.381372,3.42977 -0.08057,2.13412 -0.05791,2.52848 0.218591,3.81992 0.173873,0.81209 0.327771,1.1048 0.568306,1.84745 0.354714,-0.057 0.735991,-0.11348 1.155485,-0.17156 l 2.004192,-0.52034 1.043841,-1.10114 c 0.1819,-0.19435 0.387317,-0.43991 0.604097,-0.71933 0.21678,-0.27942 0.445073,-0.5925 0.671794,-0.92088 0.226721,-0.32837 0.452319,-0.67216 0.664042,-1.01337 0.211723,-0.34121 0.409574,-0.67994 0.58136,-0.99787 l 1.097855,-2.07647 1.387512,-1.28468 c 0.03766,-0.0349 0.07724,-0.0621 0.115238,-0.0961 -1.06551,-0.47408 -1.377158,-0.77462 -2.175847,-1.37309 -2.731455,-2.0467 -3.964847,-5.09175 -3.535701,-8.72763 0.263049,-2.22866 1.007359,-4.0605 2.408638,-5.9278 2.920901,-3.89231 9.13689,-7.08054 16.925582,-8.68061 2.116557,-0.43482 2.248468,-0.47917 1.679484,-0.56637 -0.339655,-0.0521 -1.285626,-0.0989 -2.102197,-0.10491 -1.460164,-0.0102 -4.789114,-0.22799 -5.697327,-0.37258 l -0.463021,-0.0734 0.689364,-0.54932 c 0.919865,-0.7324 2.505138,-1.4591 4.029728,-1.84692 1.086682,-0.2764 1.599764,-0.31694 4.008024,-0.31729 l 2.761589,-5.2e-4 -1.151868,-0.38912 c -0.633591,-0.21418 -1.908042,-0.57972 -2.831868,-0.81184 -4.682345,-1.17647 -5.010031,-1.45107 -2.494422,-2.09445 1.128309,-0.28858 3.278701,-0.35852 4.558895,-0.14779 0.365682,0.0605 0.665076,0.0893 0.665076,0.0646 0,-0.18287 -2.383672,-1.15118 -4.234884,-1.72031 -2.523893,-0.77594 -4.177881,-1.1367 -5.817216,-1.22215 z"
       sodipodi:nodetypes="scsscsssssssssscssscccssssccccsssccccsssssccccscccsscsss" /><path
       id="path46"
       style="display:inline;fill:#c7ffed;fill-opacity:1;stroke:none"
       inkscape:label="path1"
       d="m 49.128784,129.22725 1.749764,0.71211 c 2.966445,1.20701 5.572468,2.61204 7.747848,4.177 1.352228,0.97279 3.475424,3.17959 4.199743,4.36563 l 0.538986,0.88315 -0.538986,-0.32246 c -1.998828,-1.19589 -4.082263,-2.13274 -6.488493,-2.91766 -1.685334,-0.54976 -2.866842,-0.80642 -4.9413,-1.07228 -2.94072,-0.37689 -6.145559,-0.19906 -3.641638,0.20205 1.255954,0.2012 3.906227,0.93814 5.643583,1.5689 1.471691,0.53432 4.867259,2.21233 5.808948,2.87063 0.806249,0.56361 2.729549,2.134 2.729549,2.2288 0,0.0351 -0.17328,-0.0242 -0.384989,-0.13229 -3.332947,-1.70164 -7.324514,-2.58561 -10.19266,-2.25723 -1.125875,0.12891 -1.006259,0.18225 1.19941,0.5395 3.107345,0.50329 5.832165,1.64371 7.323584,3.06442 0.475549,0.453 0.746194,0.7858 0.601514,0.74 -0.14468,-0.0458 -1.120778,-0.24886 -2.169377,-0.45165 -1.61323,-0.31196 -2.294176,-0.36962 -4.426086,-0.37362 -2.860849,-0.006 -4.469631,0.26804 -6.008936,1.02268 l -0.850077,0.41651 2.02985,-0.0791 c 3.178624,-0.12354 6.620316,0.28852 8.295101,0.99271 l 0.429948,0.18035 -0.635104,0.28112 c -0.746141,0.33005 -1.703669,1.15898 -2.138887,1.85157 -0.294157,0.46811 -0.644281,1.42638 -0.836642,2.29185 l -0.08888,0.40152 0.741557,-0.61288 c 1.40712,-1.16277 2.152241,-1.59428 3.261299,-1.88981 0.82275,-0.2192 2.30942,-0.2516 2.30942,-0.0501 0,0.077 -0.05918,0.14004 -0.131775,0.14004 -0.07257,0 -0.623672,0.48937 -1.224731,1.08727 -2.15109,2.13983 -2.719593,4.18174 -1.861902,6.68848 0.5345,1.56217 1.856433,3.03539 3.233911,3.6034 l 0.505912,0.20825 -0.448034,-0.74414 c -0.71751,-1.19153 -0.985133,-2.19467 -0.968933,-3.6344 0.01539,-1.36727 0.304578,-2.33355 1.201477,-4.01629 0.417939,-0.78415 1.00027,-1.37324 1.180289,-1.19321 0.04279,0.0428 0.0021,0.44264 -0.09043,0.88832 -0.21594,1.04016 -0.09673,2.01315 0.361218,2.94917 0.550669,1.12552 1.427411,1.69135 4.734078,3.0577 1.067979,0.4413 2.201773,0.94779 2.519743,1.12551 1.769108,0.98877 2.08604,2.33964 0.906921,3.86436 -0.21972,0.28416 -0.350972,0.54641 -0.291972,0.58291 0.05897,0.0365 0.414907,0.009 0.791166,-0.0615 0.8173,-0.15269 1.55407,-0.6791 1.86552,-1.33222 0.12484,-0.2618 0.27653,-0.47594 0.33693,-0.47594 0.06043,0 0.481887,0.18918 0.936377,0.42013 0.4545,0.23096 0.928483,0.41961 1.053682,0.41961 0.36949,0 0.336507,0.7781 -0.06666,1.56838 -0.14601,0.28621 -0.265617,0.55618 -0.265617,0.60048 v 5.2e-4 c 0,0.154 0.492744,-0.18975 0.936894,-0.65319 0.497719,-0.51933 1.015092,-1.55618 1.020092,-2.04432 0.0017,-0.17514 0.128701,-0.67711 0.282671,-1.11518 0.300249,-0.85428 0.367972,-1.78511 0.140043,-1.92598 -0.07697,-0.0476 -0.140043,0.0144 -0.140043,0.13746 0,0.37597 -0.529697,1.28883 -0.931727,1.60507 -0.339089,0.26676 -0.393932,0.27451 -0.505912,0.0744 -0.0912,-0.16301 -0.237208,-0.19956 -0.533817,-0.13436 -0.35379,0.0777 -0.407727,0.0488 -0.407727,-0.21652 0,-0.23643 -0.0557,-0.28337 -0.244947,-0.20567 -0.465779,0.19112 -0.651321,0.13796 -0.782381,-0.22428 -0.18483,-0.51085 -0.0073,-1.286 0.393775,-1.71876 0.245649,-0.26505 0.282351,-0.3669 0.132291,-0.3669 -0.430179,0 -1.144434,0.40183 -1.483113,0.83458 l -0.350883,0.44855 -0.38344,-0.45579 c -0.210869,-0.2506 -0.761518,-1.24248 -1.223697,-2.20452 -0.66191,-1.37775 -0.999645,-1.90452 -1.590084,-2.48098 -0.65431,-0.63881 -1.618658,-1.22404 -2.506307,-1.52084 -0.23275,-0.0778 -0.242123,-0.11668 -0.06976,-0.28215 0.333419,-0.32011 1.492954,-0.63769 2.328023,-0.63769 1.068189,0 4.707492,0.5211 5.560901,0.79633 1.958948,0.63182 2.385916,1.48376 1.394747,2.78226 l -0.504362,0.66095 0.587044,-0.0941 c 0.701189,-0.11213 1.510142,-0.50438 1.877921,-0.91105 0.26451,-0.29247 0.518592,-0.39187 0.486792,-0.19017 -0.04422,0.28004 0.0452,0.30243 0.366386,0.092 0.32653,-0.21402 0.34985,-0.21304 0.34985,0.0119 0,0.15907 0.07208,0.21196 0.210323,0.15606 0.11548,-0.0467 0.311779,-0.12611 0.436149,-0.17621 0.18504,-0.0746 0.206956,-0.0301 0.121956,0.24494 -0.149919,0.48512 -0.488203,1.13793 -0.737422,1.42214 -0.11851,0.1352 -0.18853,0.27294 -0.15503,0.30644 0.16341,0.16341 1.294291,-0.53878 1.99316,-1.23765 0.50001,-0.5 0.901933,-0.78445 1.107943,-0.78445 0.4717,0 1.513132,-0.57174 1.826762,-1.00252 0.45838,-0.6296 0.237837,-1.24847 -0.715202,-2.0066 -1.884058,-1.49879 -1.848882,-1.46253 -1.845882,-1.93321 0.0015,-0.24585 0.154098,-1.04528 0.338997,-1.77664 0.27585,-1.09113 0.293813,-1.27072 0.101803,-1.00149 -0.27543,0.38621 -1.148642,1.82829 -1.560112,2.57607 -0.249079,0.45271 -0.356861,0.52503 -0.782381,0.52503 -0.332759,0 -0.601599,-0.10809 -0.825789,-0.33228 -0.30175,-0.30174 -0.773223,-1.58359 -1.000973,-2.72231 -0.153869,-0.76936 -0.333829,-0.48426 -0.333829,0.52865 0,0.53528 -0.07296,1.13355 -0.162264,1.32963 -0.54594,1.19821 -3.13874,-0.75333 -4.262789,-3.20859 -0.33571,-0.73327 -0.436885,-1.35793 -0.748275,-4.62607 -0.15925,-1.67127 -0.487073,-3.0034 -0.981852,-3.98994 -0.39533,-0.78825 -1.031246,-1.81575 -1.123446,-1.81539 -0.0385,1.6e-4 -0.06976,0.59719 -0.06976,1.32705 v 1.32705 l -0.496611,0.49661 c -0.944399,0.94416 -2.086255,0.75697 -3.003434,-0.49247 -0.676639,-0.92177 -2.827767,-2.94412 -4.036446,-3.79461 -3.323407,-2.33852 -6.918089,-3.53976 -11.079944,-3.70209 z m 18.135844,16.68167 c 0.125666,-0.0261 0.398815,-0.0133 0.920874,0.0176 1.282449,0.0759 2.286229,0.46406 2.654618,1.0263 0.23994,0.36612 0.239831,0.38715 -0.01447,0.57309 h -5.17e-4 c -0.777579,0.56859 -2.99828,-0.29606 -3.596679,-1.40043 -0.06785,-0.12521 -0.08949,-0.19043 0.03617,-0.21653 z" /><path
       id="path2"
       style="display:inline;fill:#c7ffed;fill-opacity:1;stroke:none;stroke-width:1.06324"
       d="m 65.312292,157.46274 -9.3524,8.77104 c -11.735841,10.22299 -11.817773,10.26924 -14.191899,8.05687 l -1.0604,-0.98805 0.156063,-0.93018 c 0.08591,-0.51169 0.345689,-1.1043 0.576709,-1.31723 0.231076,-0.21285 0.573123,-0.62515 0.76016,-0.91622 0.951747,-1.48146 -1.388474,-0.82366 -3.270601,0.91932 l -1.386996,1.28416 -1.224731,2.26653 c -0.687144,1.27172 -1.793691,2.87405 -2.521294,3.65146 l -1.296561,1.38544 -2.161625,0.29921 c -3.462613,0.47944 -4.538181,0.85834 -6.205306,2.18643 l -1.507402,1.20096 -0.72192,1.28364 c -1.400502,2.4909 -1.260253,6.70964 0.325045,9.79062 h -5.17e-4 c 0.905551,1.75991 2.034112,3.18047 3.287138,4.27881 0.01454,-0.0529 0.02922,-0.1056 0.04961,-0.15658 -0.02664,-0.0666 -0.05977,-0.11972 -0.09974,-0.15968 -0.02664,-0.0533 -0.03347,-0.1269 -0.02015,-0.22014 0.05328,-0.14654 0.07327,-0.23278 0.05995,-0.25942 0,-0.0266 -0.0063,-0.0535 -0.01964,-0.0801 -0.02664,-0.0266 -0.05346,-0.0598 -0.0801,-0.0997 -0.01332,-0.04 -0.0333,-0.0868 -0.05994,-0.14005 -0.03996,-0.10657 -0.02681,-0.19332 0.03979,-0.25993 0.01332,-0.14653 0.007,-0.27957 -0.01964,-0.39946 -0.02664,-0.13321 -0.02664,-0.25993 0,-0.37982 -0.01332,-0.11989 -0.01332,-0.19298 0,-0.21963 l 0.03979,-0.0801 c -0.01332,-0.17318 -0.0065,-0.29938 0.02015,-0.37931 0.03996,-0.0799 0.04628,-0.17983 0.01964,-0.29972 -0.02664,-0.0666 -0.05294,-0.1134 -0.07958,-0.14005 -0.02664,-0.0266 -0.04662,-0.0666 -0.05995,-0.11988 -0.01332,-0.0932 -1.72e-4,-0.16003 0.03979,-0.19999 0.03996,-0.04 0.06678,-0.0931 0.0801,-0.15968 0,-0.04 -0.0068,-0.0731 -0.02015,-0.0997 -0.01332,-0.04 -0.02015,-0.0799 -0.02015,-0.11989 -0.01332,-0.10657 -0.01964,-0.20016 -0.01964,-0.28008 0.01332,-0.0933 0.01964,-0.18633 0.01964,-0.27957 -0.02664,-0.11989 -0.03296,-0.18667 -0.01964,-0.19999 0.02664,-0.0266 0.04662,-0.0529 0.05994,-0.0796 0.01332,-0.11989 0.01964,-0.2198 0.01964,-0.29973 0,-0.0932 -0.01998,-0.19315 -0.05994,-0.29972 0.02664,-0.11989 0.02664,-0.1935 0,-0.22014 -0.02664,-0.0266 -0.04662,-0.0529 -0.05994,-0.0796 -0.01332,-0.0666 -0.01964,-0.12024 -0.01964,-0.1602 0.01332,-0.0533 0.02647,-0.0996 0.03979,-0.13953 0,-0.17317 -0.01315,-0.29306 -0.03979,-0.35966 -0.01332,-0.0666 -0.02015,-0.14022 -0.02015,-0.22015 0.01332,-0.0666 0.02647,-0.11288 0.03979,-0.13952 l 0.0801,-0.11989 c -0.03996,-0.0666 -0.08676,-0.14022 -0.140043,-0.22014 -0.05328,-0.0799 -0.05328,-0.16617 0,-0.25942 -0.01332,-0.0533 -0.0333,-0.0933 -0.05994,-0.11989 -0.02664,-0.0266 -0.05294,-0.0734 -0.07958,-0.14004 0,-0.0666 0.0063,-0.1134 0.01964,-0.14004 0.01332,-0.0267 0.01332,-0.0729 0,-0.13953 -0.119889,-0.19982 -0.287082,-0.1291 -0.340366,-0.18238 -0.05328,-0.0533 -0.08693,-0.14005 -0.100252,-0.25993 -0.03996,-0.0533 -0.09307,-0.0864 -0.15968,-0.0997 -0.0666,-0.0266 -0.12655,-0.0666 -0.179834,-0.11989 -0.119889,-0.0933 -0.206649,-0.13321 -0.259933,-0.11989 -0.106568,-0.10657 -0.246439,-0.1397 -0.419612,-0.0997 -0.07993,-0.0266 -0.146187,-0.0666 -0.199471,-0.11989 -0.05328,-0.0666 8.5e-4,-0.35764 8.5e-4,-0.47753 -0.0666,-0.04 -0.153364,-0.0599 -0.259932,-0.0599 -0.119889,0 -0.219797,-0.0131 -0.299724,-0.0398 0.02664,-0.10656 0.06029,-0.15336 0.100253,-0.14004 0.03996,0.0133 0.09308,0.0133 0.15968,0 0.07993,-0.0266 0.173001,-0.0466 0.279569,-0.0599 0.09325,-0.0133 0.193156,-0.0265 0.299724,-0.0398 0.03996,0.0133 0.07361,0.0333 0.100252,0.0599 l 0.07958,0.0801 c 0.07993,-0.04 0.166685,-0.0868 0.259932,-0.14004 0.106568,-0.0533 0.213309,-0.0465 0.319877,0.0202 0.02664,0.0266 0.04662,0.0598 0.05994,0.0997 0.02664,0.0266 0.05977,0.0534 0.09973,0.0801 l 0.159681,-0.0801 c 0.0666,-0.04 0.140215,-0.0531 0.220141,-0.0398 0.13321,-0.0266 0.206304,-0.0335 0.219625,-0.0202 0.01332,0.0133 0.0333,0.0202 0.05994,0.0202 0.05328,-0.0133 0.106396,-0.047 0.15968,-0.10025 0.0666,-0.0533 0.133383,-0.0996 0.199988,-0.13952 0.07993,-0.04 0.153019,-0.0599 0.219625,-0.0599 0.0666,-0.0133 0.126549,0.013 0.179834,0.0796 0.02664,0.14653 0.08336,0.0701 0.136642,0.0834 0.0666,0.0133 0.15168,0.0122 0.204964,0.0522 0.09325,-0.0266 0.151272,0.0526 0.25784,0.026 0.119889,-0.04 0.219797,0.0519 0.299723,0.11848 0.06661,-0.0266 0.140216,-0.0603 0.220142,-0.10025 0.07993,-0.04 0.166169,-0.0331 0.259416,0.0201 0.05328,-0.0133 0.10008,-0.0265 0.140043,-0.0398 0.03996,-0.0133 0.09308,-0.0202 0.15968,-0.0202 0.106568,-0.0533 0.193327,-0.0864 0.259933,-0.0997 0.07993,0.0133 0.13987,0.0333 0.179833,0.0599 0.05329,0.0133 0.120062,0.0196 0.199988,0.0196 l 0.07958,0.0801 c 0.03996,0.0133 0.07361,0.0333 0.100252,0.06 0.0666,0 0.12655,-0.007 0.179834,-0.0202 0.05328,-0.0133 0.113229,-0.0265 0.179834,-0.0398 0.05328,-0.0266 0.113229,-0.0335 0.179834,-0.0201 0.06661,0 0.132866,-0.006 0.199471,-0.0196 l 0.239779,-0.0403 c 0.07993,-0.0133 0.153536,0.007 0.220142,0.06 0.13321,0.04 0.29819,-0.10669 0.29819,-0.0534 0,0.04 0.0068,0.0731 0.02015,0.0997 0.09325,-0.0133 0.173174,-0.0133 0.239779,0 0.07993,0 0.07428,0.18749 0.18085,0.17389 0.06661,0.0133 0.655684,-0.006 0.708968,0.0204 0.06661,0.0133 0.146532,0.0265 0.239779,0.0398 0.09325,0.0533 0.153192,0.0733 0.179834,0.06 0.02664,-0.0266 0.0666,-0.0335 0.119889,-0.0202 0.09325,0.10657 0.153192,0.16652 0.179834,0.17984 0.02664,0 0.05346,0.007 0.0801,0.0202 l 0.0801,0.15968 c 0.02664,0.04 0.07292,0.0736 0.139527,0.10026 0.06661,-0.0133 0.12655,-0.027 0.179834,-0.0403 0.05328,-0.0133 0.09325,3.4e-4 0.119889,0.0403 0.213136,0.14653 0.386655,0.29271 0.519865,0.43924 0.01332,0.0666 0.02647,0.12024 0.03979,0.1602 0.01332,0.04 0.0333,0.0862 0.05994,0.13953 0.07993,0 0.139871,0.02 0.179834,0.0599 0.05328,0.0266 0.100081,0.0603 0.140044,0.10026 l 0.119889,0.11988 c 0.03998,0.04 0.09308,0.0663 0.15968,0.0796 0.02664,0.04 0.02664,0.0999 0,0.17983 -0.01332,0.0666 -0.01332,0.12023 0,0.1602 0.01332,0.04 0.04013,0.0599 0.0801,0.0599 0.05328,0 0.09325,0.0131 0.119889,0.0398 0.03996,0.0266 0.07993,0.0598 0.119889,0.0997 l 0.119889,0.0801 c 0,0.0932 0.01998,0.16634 0.05995,0.21962 0.05328,0.04 0.08641,0.10674 0.09974,0.19999 0.07993,0.0533 0.139871,0.11323 0.179834,0.17983 0.05328,0.0666 0.113229,0.12655 0.179834,0.17984 0.07993,0.0932 0.119889,0.15319 0.119889,0.17983 0,0.0133 0.01315,0.0265 0.03979,0.0398 0.06661,0.21314 0.106568,0.40664 0.119889,0.57981 0.01332,0.15985 0.05328,0.29973 0.119889,0.41961 0.03996,0.11989 0.07361,0.19299 0.100253,0.21963 0.03996,0.0133 0.07309,0.0333 0.09974,0.0599 0.01332,0.0666 0.01332,0.11972 0,0.15968 -0.01332,0.04 -0.0333,0.0868 -0.05994,0.14005 0.02664,0.15985 0.05346,0.27974 0.0801,0.35966 0.02664,0.0799 0.05294,0.17301 0.07958,0.27957 -0.05328,0.34635 -0.07327,0.63293 -0.05995,0.85938 0.01332,0.22646 0.06012,0.43311 0.140043,0.6196 0,0.14654 -0.01998,0.26642 -0.05994,0.35967 -0.02664,0.0933 -0.05346,0.19316 -0.0801,0.29973 0.06661,0.13321 0.06029,0.24626 -0.01964,0.33951 -0.06661,0.0799 -0.113401,0.16668 -0.140043,0.25993 0.05328,0.22646 0.06643,0.38631 0.03979,0.47956 l -0.07958,0.23978 c 0.01332,0.0666 0.0065,0.13286 -0.02015,0.19947 -0.01332,0.0666 -0.0333,0.13338 -0.05994,0.19999 -0.02664,0.0666 -0.04662,0.13338 -0.05994,0.19998 -0.01332,0.0666 -0.0333,0.12655 -0.05995,0.17984 -0.02664,0.15985 -0.04662,0.27291 -0.05994,0.33951 -0.01332,0.0533 -0.02015,0.12638 -0.02015,0.21963 -0.05328,0.0666 -0.09325,0.14653 -0.11989,0.23978 -0.01332,0.0932 -0.01964,0.18684 -0.01964,0.28008 -0.173173,0.10657 -0.313044,0.27957 -0.419612,0.51935 0.01332,0.0933 -3.45e-4,0.17317 -0.04031,0.23978 -0.02664,0.0533 -0.05294,0.11323 -0.07958,0.17983 -0.13321,0.17318 -0.213136,0.29307 -0.239778,0.35967 -0.0043,0.003 -0.0071,0.007 -0.01137,0.009 1.177539,-0.1183 1.512004,-0.40756 2.562723,-0.97514 0.0073,-0.0318 0.01095,-0.0673 0.01964,-0.0977 0.06661,-0.10657 0.08659,-0.16652 0.05994,-0.17984 -0.01332,-0.0266 -0.0333,-0.0534 -0.05994,-0.0801 -0.05328,-0.10656 -0.08642,-0.21331 -0.09974,-0.31987 0,-0.10657 -0.0068,-0.2128 -0.02015,-0.31936 0.06661,-0.19982 0.106568,-0.39964 0.119889,-0.59945 0.01332,-0.21314 0.02015,-0.43293 0.02015,-0.65939 -0.0666,-0.15985 -0.09342,-0.25976 -0.0801,-0.29972 0.02664,-0.0533 0.02664,-0.10692 0,-0.1602 -0.01332,-0.10657 -0.01964,-0.16651 -0.01964,-0.17984 0.01332,-0.0133 0.01964,-0.0333 0.01964,-0.0599 -0.01332,-0.10657 -0.02647,-0.22646 -0.03979,-0.35967 -0.01332,-0.13321 -1.72e-4,-0.25941 0.03979,-0.3793 0.06661,-0.1865 0.07344,-0.32637 0.02015,-0.41962 -0.03996,-0.0932 -0.07309,-0.18684 -0.09973,-0.28008 0.02664,-0.13321 0.02664,-0.2794 0,-0.43925 -0.01332,-0.15985 -0.02015,-0.31339 -0.02015,-0.45992 0.01332,-0.13321 0.01332,-0.22629 0,-0.27957 0,-0.0533 0.01315,-0.1064 0.03979,-0.15968 -0.02664,-0.0799 -0.04662,-0.15985 -0.05994,-0.23978 0,-0.0932 -0.01998,-0.17317 -0.05994,-0.23978 0.02664,-0.0932 0.02664,-0.17317 0,-0.23978 -0.01332,-0.0799 -0.01332,-0.17352 0,-0.28008 -0.05328,-0.19982 -0.106396,-0.31971 -0.15968,-0.35967 -0.03996,-0.04 -0.05311,-0.11306 -0.03979,-0.21963 -0.0666,-0.13321 -0.09342,-0.2063 -0.0801,-0.21962 l 0.03979,-0.0801 c -0.05328,-0.10657 -0.08642,-0.18649 -0.09974,-0.23978 0,-0.0933 -0.02681,-0.16634 -0.0801,-0.21962 -0.133211,-0.0266 -0.213137,-0.0535 -0.239779,-0.0801 -0.01332,-0.0266 -0.0333,-0.0535 -0.05994,-0.0801 -0.05328,-0.04 -0.145884,-0.37825 -0.199168,-0.39155 -0.03996,-0.0133 -0.05311,-0.0601 -0.03979,-0.14005 0.146532,-0.0133 0.232774,-0.0265 0.259416,-0.0398 0.03996,-0.0266 0.07993,-0.0466 0.119889,-0.0599 0.05328,0.0266 0.09325,0.033 0.11989,0.0196 0.03996,-0.0133 0.09359,-0.0265 0.160197,-0.0398 0.199815,0.04 0.326021,0.0468 0.379305,0.0202 0.05328,-0.0266 0.120061,-0.0403 0.199987,-0.0403 0.146532,0.0799 0.259588,0.11989 0.339515,0.11989 0.13321,-0.10657 0.213136,-0.16651 0.239778,-0.17983 0.03996,-0.0133 0.07993,-0.0333 0.11989,-0.06 0.146531,0.0133 0.496554,0.0312 0.496554,0.0844 0.01332,0.0533 0.01332,0.11323 0,0.17984 0.0666,0.0133 0.119717,0.006 0.15968,-0.0202 l 0.11989,-0.11988 c 0.03998,-0.04 0.07993,-0.0731 0.119889,-0.0997 0.03996,-0.0266 0.09991,-0.0335 0.179834,-0.0202 0.02664,0.0266 0.03979,0.0598 0.03979,0.0997 0.01332,0.04 0.0333,0.0868 0.05994,0.14004 0.173174,-0.0666 0.273082,-0.0797 0.299724,-0.0398 0.03996,0.0266 0.09359,0.0466 0.160197,0.0599 0.06661,-0.0133 0.106568,-0.0401 0.119889,-0.0801 0.01332,-0.04 0.04645,-0.0731 0.09974,-0.0997 0.146531,0.04 0.239606,0.0531 0.279569,0.0398 0.03996,-0.0266 0.09359,-0.0466 0.160197,-0.0599 0.05328,0.0133 0.08641,0.0265 0.09974,0.0398 0.02664,0 0.06661,-0.006 0.11989,-0.0196 0.07993,0.04 0.15302,0.0931 0.219625,0.15968 0.09325,-0.0266 0.173173,-0.0666 0.239778,-0.11988 0.0666,-0.0533 0.160197,-0.0733 0.280087,-0.0599 0.146531,0.0533 0.246439,0.0664 0.299723,0.0398 0.05328,-0.0266 0.13321,-0.0266 0.239779,0 0.173173,0.04 0.279397,0.0468 0.31936,0.0202 0.159852,0.0799 0.273426,0.13303 0.340031,0.15968 0.0666,0.0266 0.12655,0.0666 0.179834,0.11988 l 0.563487,-0.99081 0.851627,-0.74827 c 0.534729,-0.4699 2.127889,-1.21031 4.283977,-1.99058 3.727071,-1.3488 5.621042,-2.52377 6.065263,-3.76308 0.448837,-1.25219 -0.05248,-1.51706 -1.714625,-0.90588 -1.783292,0.65571 -3.596294,0.53022 -4.729427,-0.3266 l -0.810803,-0.61237 0.114205,-1.09657 c 0.18516,-1.77964 1.162629,-2.8222 11.620996,-12.75064 l 10.317717,-9.79527 -1.7632,-0.63717 z m -35.222338,43.60075 -1.194361,-0.74982 z m -1.194361,-0.74982 c 0.73087,0.3777 0.436725,0.55632 1.194361,0.74982 0.004,-0.004 0.0095,-0.008 0.01344,-0.0119 0.13321,-0.0533 0.218666,-0.0555 0.231987,-0.0421 l 0.06378,-0.0612 c 0.05328,-0.04 0.115875,-0.025 0.155838,-0.0783 0.03996,-0.0533 0.08585,-0.0362 0.125813,-0.10284 0.119889,-0.14653 0.199815,-0.26642 0.239778,-0.35966 0.05328,-0.0933 0.113229,-0.18684 0.179834,-0.28009 0.106568,0.0133 0.166513,-0.013 0.179834,-0.0796 0.01332,-0.0666 0.02015,-0.14653 0.02015,-0.23978 0.05328,-0.13321 0.153192,-0.21997 0.299723,-0.25993 0.03996,-0.11989 0.05994,-0.19299 0.05994,-0.21963 0.01332,-0.0666 0.0333,-0.12023 0.05994,-0.1602 0.03996,-0.04 0.05994,-0.0999 0.05994,-0.17983 0.07993,-0.10657 0.11989,-0.21279 0.11989,-0.31936 0.02664,-0.0932 0.02664,-0.17317 0,-0.23978 -0.02664,-0.0666 -0.04031,-0.14653 -0.04031,-0.23978 0.03996,-0.11989 0.09991,-0.20665 0.179834,-0.25993 0.07993,-0.0533 0.133555,-0.13321 0.160197,-0.23978 -0.03996,-0.14653 -0.05363,-0.22646 -0.04031,-0.23978 0.02664,-0.0266 0.04662,-0.0534 0.05994,-0.0801 0.02664,-0.15985 0.02664,-0.2729 0,-0.33951 -0.02664,-0.0799 -0.04662,-0.15302 -0.05994,-0.21962 0.02664,-0.11989 0.04031,-0.22663 0.04031,-0.31988 0,-0.10657 0.01315,-0.21963 0.03979,-0.33952 -0.146531,-0.0666 -0.193327,-0.16019 -0.140043,-0.28008 0.05328,-0.13321 0.09325,-0.24627 0.119889,-0.33952 l -0.03979,-0.15968 c 0,-0.0666 0.0068,-0.12023 0.02015,-0.16019 l 0.05994,-0.11989 c 0.01332,-0.04 0.01332,-0.0799 0,-0.11989 0,-0.04 0.01315,-0.0731 0.03979,-0.0997 -0.02664,-0.0533 -0.05346,-0.0932 -0.0801,-0.11989 -0.02664,-0.04 -0.05294,-0.0931 -0.07958,-0.15968 0.03996,-0.15985 0.05311,-0.25976 0.03979,-0.29972 0,-0.04 -0.0068,-0.0736 -0.02015,-0.10025 -0.03996,-0.0533 -0.08624,-0.0933 -0.139526,-0.11989 -0.05328,-0.04 -0.09325,-0.0931 -0.119889,-0.15968 -0.02664,-0.0666 -0.03347,-0.1134 -0.02015,-0.14004 0.01332,-0.04 0.01332,-0.0799 0,-0.11989 -0.13321,-0.1865 -0.21997,-0.37265 -0.259933,-0.55914 l -0.199471,-0.0801 c -0.06661,-0.0266 -0.113401,-0.0734 -0.140043,-0.14004 -0.02664,-0.0533 -0.03347,-0.0933 -0.02015,-0.11989 0.01332,-0.0266 0.01332,-0.0729 0,-0.13953 -0.02664,-0.0533 -0.05977,-0.0932 -0.09974,-0.11989 -0.03996,-0.04 -0.05994,-0.0999 -0.05994,-0.17983 -0.146531,-0.0799 -0.1479,0.2334 -0.227826,0.11351 -0.146531,-0.0799 -0.226458,-0.13355 -0.239779,-0.16019 -0.01332,-0.0267 -0.0333,-0.0466 -0.05994,-0.06 -0.13321,-0.0533 -0.199988,-0.0996 -0.199988,-0.13952 -0.13321,-0.0266 -0.219969,-0.0603 -0.259932,-0.10026 -0.03996,-0.0533 -0.09308,-0.0932 -0.159681,-0.11989 -0.0666,-0.0266 -0.139698,-0.0398 -0.219624,-0.0398 -0.06661,-0.0133 -0.113402,-0.0533 -0.140044,-0.11989 -0.03996,-0.0666 -0.08676,-0.0866 -0.140043,-0.0599 -0.03996,0.0133 -0.09308,0.0202 -0.15968,0.0202 -0.02664,-0.0133 -0.05346,-0.0333 -0.0801,-0.0599 -0.01332,-0.04 -0.03962,-0.0736 -0.07958,-0.10025 -0.06661,-0.0267 -0.133383,-0.0267 -0.199988,0 -0.05328,0.0133 -0.120062,0.027 -0.199988,0.0403 l -0.03132,0.0308 c -0.333809,-0.14432 -0.103252,0.21083 -0.03158,0.62594 0.03583,0.20756 0.09973,0.35284 0.09973,0.45941 0,0.10656 -0.01315,0.21331 -0.03979,0.31987 0.02664,0.0666 0.03979,0.15968 0.03979,0.27957 0,0.10657 -0.01315,0.19333 -0.03979,0.25994 0.07993,0.15985 0.11989,0.35966 0.11989,0.59944 -0.03996,0.14653 -0.06678,0.29955 -0.0801,0.45941 -0.01332,0.14653 -0.02015,0.30638 -0.02015,0.47955 0.0666,0.13321 0.100253,0.29307 0.100253,0.47956 0.01332,0.18649 0.01964,0.35318 0.01964,0.49971 0.02664,0.0266 0.04031,0.0598 0.04031,0.0997 l 0.03979,0.11989 c 0.07564,0.22791 -0.02015,0.44642 -0.02015,0.6196 0.01332,0.15985 1.73e-4,0.31287 -0.03979,0.4594 v 0.23978 c 0,0.0133 0.0068,0.0333 0.02015,0.0599 -0.02664,0.1865 -0.06661,0.34635 -0.119889,0.47956 -0.03996,0.13321 -0.05994,0.29306 -0.05994,0.47956 0.0666,0.0933 0.09974,0.21313 0.09974,0.35967 0,0.13321 0.01998,0.2531 0.05995,0.35966 0.01332,0.0666 0.01332,0.12655 0,0.17984 0,0.04 0.0068,0.0936 0.02015,0.16019 -0.02664,0.13322 -0.04031,0.24627 -0.04031,0.33952 0.0666,0.17317 0.08027,0.27991 0.04031,0.31988 -0.0041,0.006 -0.01113,0.009 -0.0155,0.015 z m 10.977425,-19.82184 c 1.789842,0.0231 3.491538,1.95329 2.580721,3.9026 l -0.448551,0.96066 -0.855762,0.38086 c -0.470529,0.20963 -1.16314,0.35141 -1.538924,0.31471 -2.316483,-0.22616 -3.221437,-3.24149 -1.463476,-4.87619 0.522641,-0.48599 1.129378,-0.69035 1.725992,-0.68264 z"
       sodipodi:nodetypes="cccccccccccccccccccccccccccccccccscscccccscscscccccccscscscscccccccscscccccccccccscccccccccscsccccccscccccscccccccccccsccsccssccsscccccccscccccscscsccccccccssccccccccccccccccccccccscccccccccccccccccccccccccscccccccsscccccsccccccscsccscccsssccccccccccccscccsccccccscscscccscccccccccccccscccccsccccscccsccccccccccccsccccccccccscccsccccccsccccssccsc" /><text
       xml:space="preserve"
       id="text1"
       style="font-size:74.6667px;white-space:pre;shape-inside:url(#rect1);display:inline;fill:#c7ffed;fill-opacity:1;stroke:none"
       transform="matrix(0.26458333,0,0,0.26458333,6.6119134,-7.8628161)"><tspan
         x="66.189453"
         y="798.23202"
         id="tspan4"><tspan
           style="font-family:'Metal Mania';-inkscape-font-specification:'Metal Mania'"
           id="tspan2">DragonsRock</tspan></tspan></text></g></svg>
